<svg width="16" height="28" viewBox="0 0 16 28" fill="none" xmlns="http://www.w3.org/2000/svg">
<path d="M15.3846 14.8832L2.88459 27.3832C2.76844 27.4992 2.63058 27.5913 2.47883 27.6542C2.3271 27.717 2.16446 27.7495 2.00021 27.7495C1.83596 27.7495 1.67333 27.717 1.5216 27.6542C1.36985 27.5913 1.23198 27.4992 1.11585 27.3832C0.999695 27.267 0.907578 27.1292 0.844728 26.9773C0.781861 26.8257 0.749512 26.663 0.749512 26.4987C0.749512 26.3345 0.781861 26.1718 0.844728 26.0202C0.907578 25.8683 0.999695 25.7305 1.11585 25.6143L12.733 13.9987L1.11585 2.38313C0.881278 2.14856 0.749512 1.83045 0.749512 1.49875C0.749512 1.16705 0.881278 0.84893 1.11585 0.61438C1.3504 0.379814 1.66851 0.248047 2.00021 0.248047C2.33191 0.248047 2.65004 0.379814 2.88459 0.61438L15.3846 13.1143C15.5008 13.2305 15.593 13.3683 15.656 13.52C15.7188 13.6718 15.7511 13.8345 15.7511 13.9987C15.7511 14.163 15.7188 14.3257 15.656 14.4773C15.593 14.6292 15.5008 14.767 15.3846 14.8832Z" fill="#1B1D1E"/>
</svg>
