<svg width="16" height="28" viewBox="0 0 16 28" fill="none" xmlns="http://www.w3.org/2000/svg">
<path d="M0.615623 14.8832L13.1157 27.3832C13.2318 27.4992 13.3697 27.5913 13.5213 27.6542C13.6732 27.717 13.8357 27.7495 14 27.7495C14.1642 27.7495 14.3268 27.717 14.4787 27.6542C14.6303 27.5913 14.7682 27.4992 14.8843 27.3832C15.0005 27.267 15.0927 27.1292 15.1555 26.9773C15.2183 26.8257 15.2507 26.663 15.2507 26.4987C15.2507 26.3345 15.2183 26.1718 15.1555 26.0202C15.0927 25.8683 15.0005 25.7305 14.8843 25.6143L3.26719 13.9987L14.8843 2.38313C15.119 2.14856 15.2507 1.83045 15.2507 1.49875C15.2507 1.16705 15.119 0.84893 14.8843 0.61438C14.6498 0.379814 14.3317 0.248047 14 0.248047C13.6683 0.248047 13.3502 0.379814 13.1157 0.61438L0.615623 13.1143C0.499406 13.2305 0.407207 13.3683 0.34429 13.52C0.28139 13.6718 0.249023 13.8345 0.249023 13.9987C0.249023 14.163 0.28139 14.3257 0.34429 14.4773C0.407207 14.6292 0.499406 14.767 0.615623 14.8832Z" fill="#1B1D1E"/>
</svg>
