<svg width="26" height="26" viewBox="0 0 26 26" fill="none" xmlns="http://www.w3.org/2000/svg">
<path d="M21.5938 3.22607H4.40625C3.99185 3.22607 3.59442 3.39069 3.3014 3.68372C3.00837 3.97675 2.84375 4.37417 2.84375 4.78857V21.9761C2.84375 22.3905 3.00837 22.7879 3.3014 23.0809C3.59442 23.374 3.99185 23.5386 4.40625 23.5386H21.5938C22.0082 23.5386 22.4056 23.374 22.6986 23.0809C22.9916 22.7879 23.1562 22.3905 23.1562 21.9761V4.78857C23.1562 4.37417 22.9916 3.97675 22.6986 3.68372C22.4056 3.39069 22.0082 3.22607 21.5938 3.22607ZM21.5938 21.9761H4.40625V4.78857H21.5938V21.9761ZM9.875 11.8198V18.0698C9.875 18.277 9.79269 18.4757 9.64618 18.6223C9.49966 18.7688 9.30095 18.8511 9.09375 18.8511C8.88655 18.8511 8.68784 18.7688 8.54132 18.6223C8.39481 18.4757 8.3125 18.277 8.3125 18.0698V11.8198C8.3125 11.6126 8.39481 11.4139 8.54132 11.2674C8.68784 11.1209 8.88655 11.0386 9.09375 11.0386C9.30095 11.0386 9.49966 11.1209 9.64618 11.2674C9.79269 11.4139 9.875 11.6126 9.875 11.8198ZM18.4688 14.5542V18.0698C18.4688 18.277 18.3864 18.4757 18.2399 18.6223C18.0934 18.7688 17.8947 18.8511 17.6875 18.8511C17.4803 18.8511 17.2816 18.7688 17.1351 18.6223C16.9886 18.4757 16.9062 18.277 16.9062 18.0698V14.5542C16.9062 14.0362 16.7005 13.5394 16.3342 13.1731C15.9679 12.8068 15.4711 12.6011 14.9531 12.6011C14.4351 12.6011 13.9383 12.8068 13.5721 13.1731C13.2058 13.5394 13 14.0362 13 14.5542V18.0698C13 18.277 12.9177 18.4757 12.7712 18.6223C12.6247 18.7688 12.426 18.8511 12.2188 18.8511C12.0115 18.8511 11.8128 18.7688 11.6663 18.6223C11.5198 18.4757 11.4375 18.277 11.4375 18.0698V11.8198C11.4385 11.6285 11.5096 11.4441 11.6375 11.3017C11.7654 11.1594 11.9411 11.0689 12.1312 11.0474C12.3214 11.026 12.5128 11.0751 12.6692 11.1854C12.8255 11.2958 12.9359 11.4597 12.9795 11.646C13.508 11.2875 14.1242 11.0797 14.7619 11.0449C15.3995 11.0102 16.0347 11.1498 16.599 11.4488C17.1633 11.7478 17.6355 12.1948 17.965 12.7419C18.2944 13.2891 18.4685 13.9156 18.4688 14.5542ZM10.2656 9.08545C10.2656 9.31722 10.1969 9.54379 10.0681 9.73651C9.93936 9.92922 9.75634 10.0794 9.54221 10.1681C9.32807 10.2568 9.09245 10.28 8.86513 10.2348C8.63781 10.1896 8.429 10.078 8.26511 9.91409C8.10122 9.7502 7.98961 9.54139 7.94439 9.31407C7.89918 9.08675 7.92238 8.85112 8.01108 8.63699C8.09977 8.42286 8.24998 8.23984 8.44269 8.11107C8.63541 7.9823 8.86198 7.91357 9.09375 7.91357C9.40455 7.91357 9.70262 8.03704 9.92239 8.25681C10.1422 8.47658 10.2656 8.77465 10.2656 9.08545Z" fill="#1B1D1E" fill-opacity="0.6"/>
</svg>
