<svg width="26" height="26" viewBox="0 0 26 26" fill="none" xmlns="http://www.w3.org/2000/svg">
<path d="M21.4721 21.5571L15.3588 11.9497L21.3911 5.31397C21.5275 5.16018 21.5978 4.95882 21.5868 4.75354C21.5757 4.54826 21.4842 4.3556 21.3321 4.21734C21.1799 4.07908 20.9794 4.00636 20.774 4.01494C20.5686 4.02352 20.3749 4.11271 20.2348 4.26318L14.4887 10.5835L10.5346 4.36963C10.4641 4.25865 10.3667 4.16726 10.2515 4.10392C10.1363 4.04059 10.0069 4.00736 9.87544 4.00732H5.18794C5.04786 4.00726 4.91034 4.04485 4.78978 4.11617C4.66922 4.18749 4.57006 4.28992 4.50266 4.41272C4.43527 4.53552 4.40214 4.67418 4.40673 4.81418C4.41132 4.95418 4.45347 5.09037 4.52876 5.2085L10.642 14.8149L4.60982 21.4556C4.53937 21.5312 4.48465 21.6201 4.44882 21.7171C4.41298 21.8141 4.39676 21.9172 4.40107 22.0205C4.40539 22.1238 4.43016 22.2252 4.47396 22.3189C4.51776 22.4125 4.5797 22.4965 4.65621 22.5661C4.73272 22.6356 4.82227 22.6892 4.91967 22.7239C5.01707 22.7586 5.12038 22.7736 5.22361 22.768C5.32684 22.7625 5.42795 22.7365 5.52107 22.6916C5.61418 22.6466 5.69746 22.5837 5.76607 22.5063L11.5122 16.186L15.4663 22.3999C15.5373 22.51 15.635 22.6004 15.7502 22.6629C15.8654 22.7253 15.9944 22.7578 16.1254 22.7573H20.8129C20.9529 22.7573 21.0902 22.7197 21.2106 22.6484C21.331 22.5771 21.4301 22.4748 21.4975 22.3522C21.5648 22.2295 21.598 22.091 21.5936 21.9512C21.5891 21.8113 21.5472 21.6752 21.4721 21.5571ZM16.5542 21.1948L6.61079 5.56982H9.44282L19.3901 21.1948H16.5542Z" fill="#1B1D1E" fill-opacity="0.6"/>
</svg>
